<svg xmlns="http://www.w3.org/2000/svg" class="flag" viewBox="0 0 16 11" width="16" height="11"><path fill="#00008b" d="M 0 0 h 16 v 11 H 0 Z"/><path fill="#fff" d="M 0 0 v 1.043 l 0.5 0.357 H 0 v 2.2 h 0.498 L 0 3.955 V 5 h 1.46 l 0.94 -0.672 V 5 h 2.2 v -0.67 l 0.94 0.67 H 7 V 3.957 L 6.5 3.6 H 7 V 1.4 h -0.5 l 0.5 -0.357 V 0 H 5.537 L 4.6 0.67 V 0 H 2.4 v 0.672 L 1.46 0 H 0 Z m 12 5 h 1 v 1 h -1 Z"/><path fill="red" d="M 0 0 v 0.307 L 1.67 1.5 h 0.86 L 0.43 0 H 0 Z m 3 0 v 2 H 0 v 1 h 3 v 2 h 1 V 3 h 3 V 2 H 4 V 0 H 3 Z m 3.57 0 l -2.1 1.5 h 0.86 L 7 0.307 V 0 h -0.43 Z m -4.9 3.5 L 0 4.693 V 5 h 0.43 l 2.1 -1.5 h -0.86 Z m 2.8 0 L 6.57 5 H 7 v -0.307 L 5.33 3.5 h -0.86 Z"/><circle fill="#fff" cx="12.5" cy="1.5" r="1"/><circle fill="#fff" cx="14.5" cy="3.5" r="1"/><circle fill="#fff" cx="9.5" cy="4.5" r="1"/><circle fill="#fff" cx="11.5" cy="9.5" r="1"/><path fill="#fff" d="M 3 6.5 l -1 1 v 1 l 1 1 h 1 l 1 -1 v -1 l -1 -1 H 3 Z"/></svg>