<svg xmlns="http://www.w3.org/2000/svg" class="flag" viewBox="0 0 16 11" width="16" height="11"><path fill="#00247d" d="M 0 0 h 16 v 11 H 0 Z"/><path fill="#fff" d="M 0 0 v 1.518 L 3.61 4 H 0 v 3 h 3.61 L 0 9.482 V 11 h 2.207 L 6 8.393 V 11 h 4 V 8.393 L 13.793 11 H 16 V 9.482 L 12.39 7 H 16 V 4 h -3.61 L 16 1.518 V 0 h -2.207 L 10 2.607 V 0 H 6 v 2.607 L 2.207 0 H 0 Z"/><path fill="#cf142b" d="M 0 0 v 0.91 L 4.494 4 h 1.324 L 0 0 Z m 7 0 v 5 H 0 v 1 h 7 v 5 h 2 V 6 h 7 V 5 H 9 V 0 H 7 Z m 7.676 0 L 10 3.215 V 4 h 0.182 L 16 0 h -1.324 Z M 5.818 7 L 0 11 h 1.324 L 6 7.785 V 7 h -0.182 Z m 4.364 0 L 16 11 v -0.91 L 11.506 7 h -1.324 Z"/></svg>