<svg xmlns="http://www.w3.org/2000/svg" class="flag" viewBox="0 0 16 11" width="16" height="11"><g fill="none" fill-rule="evenodd"><path fill="#f5f7fa" d="M 0 0 h 16 v 11 H 0 V 0"/><path fill="#e62625" d="M 0 0 h 16 v 6 H 0 V 0"/><g fill="#f5f7fa"><path d="M 5.305 1.364 c -1.259 0.271 -2.054 1.48 -1.775 2.7 c 0.196 0.86 0.889 1.532 1.775 1.722 c -1.242 0.403 -2.587 -0.246 -3.003 -1.45 c -0.417 -1.205 0.253 -2.508 1.495 -2.912 a 2.36 2.36 0 0 1 0.219 -0.06 c 0.42 -0.12 0.869 -0.12 1.29 0"/><path d="M 5.806 2.314 l -0.353 -0.25 h 0.442 l 0.132 -0.407 l 0.14 0.407 h 0.443 l -0.361 0.25 l 0.147 0.407 l -0.369 -0.25 l -0.368 0.25 l 0.147 -0.407 Z m 1.275 0.922 l -0.354 -0.25 h 0.406 l 0.132 -0.407 l 0.177 0.4 h 0.428 l -0.354 0.25 l 0.147 0.407 l -0.353 -0.243 l -0.361 0.25 l 0.132 -0.407 Z m -0.479 1.428 l -0.353 -0.3 h 0.442 l 0.132 -0.407 l 0.14 0.407 h 0.442 l -0.353 0.25 l 0.132 0.407 l -0.36 -0.25 l -0.354 0.25 l 0.132 -0.357 Z m -1.613 0 l -0.354 -0.285 h 0.435 l 0.132 -0.408 l 0.148 0.4 h 0.442 l -0.354 0.25 l 0.133 0.408 l -0.361 -0.243 l -0.354 0.25 l 0.133 -0.372 Z m -0.487 -1.428 l -0.353 -0.25 h 0.442 l 0.132 -0.415 l 0.14 0.408 h 0.442 l -0.383 0.25 l 0.162 0.407 l -0.36 -0.25 l -0.354 0.25 l 0.132 -0.4 Z"/></g><path stroke="#e9e9e9" stroke-width="0.5" d="M 0.25 0.25 h 15.5 v 10.5 H 0.25 Z"/></g></svg>