<svg xmlns="http://www.w3.org/2000/svg" class="flag" viewBox="0 0 16 11" width="16" height="11"><path fill="#fff" d="M 0 0 h 16 v 11 H 0 Z"/><path fill="#b22234" d="M 0 0 v 1 h 16 V 0 H 0 Z m 0 2 v 1 h 16 V 2 H 0 Z m 0 2 v 1 h 16 V 4 H 0 Z m 0 2 v 1 h 16 V 6 H 0 Z m 0 2 v 1 h 16 V 8 H 0 Z m 0 2 v 1 h 16 v -1 H 0 Z"/><path fill="#3c3b6e" d="M 0 0 h 9 v 7 H 0 Z"/><path fill="#fff" d="M 1 1 v 1 h 1 V 1 H 1 Z m 2 0 v 1 h 1 V 1 H 3 Z m 2 0 v 1 h 1 V 1 H 5 Z m 2 0 v 1 h 1 V 1 H 7 Z M 2 3 v 1 h 1 V 3 H 2 Z m 2 0 v 1 h 1 V 3 H 4 Z m 2 0 v 1 h 1 V 3 H 6 Z M 1 5 v 1 h 1 V 5 H 1 Z m 2 0 v 1 h 1 V 5 H 3 Z m 2 0 v 1 h 1 V 5 H 5 Z m 2 0 v 1 h 1 V 5 H 7 Z"/></svg>